<?xml version="1.0" encoding="UTF-8"?>
<!DOCTYPE svg PUBLIC "-//W3C//DTD SVG 1.1//EN" "http://www.w3.org/Graphics/SVG/1.1/DTD/svg11.dtd">
<!-- Creator: CorelDRAW -->
<svg xmlns="http://www.w3.org/2000/svg" xml:space="preserve" width="120px" height="120px" version="1.1" style="shape-rendering:geometricPrecision; text-rendering:geometricPrecision; image-rendering:optimizeQuality; fill-rule:evenodd; clip-rule:evenodd"
viewBox="0 0 10.17 10.21"
 xmlns:xlink="http://www.w3.org/1999/xlink"
 xmlns:xodm="http://www.corel.com/coreldraw/odm/2003">
 <defs>
  <style type="text/css">
   <![CDATA[
    .fil0 {fill:#63C0CD}
   ]]>
  </style>
 </defs>
 <g id="Camada_x0020_1">
  <metadata id="CorelCorpID_0Corel-Layer"/>
  <g id="_2377067793040">
   <path class="fil0" d="M0 2.73c0,0.11 0.32,0.32 0.41,0.39l2.45 1.93c0.11,0.09 0.59,0.51 0.71,0.51 0.1,0 0.16,-0.08 0.16,-0.18l0 -1.69 3.37 0c0.82,0 1.72,0.3 2.28,0.85 0.05,0.05 0.17,0.23 0.23,0.23 0.11,0 0.18,-0.06 0.18,-0.16 0,-0.36 -0.14,-0.87 -0.25,-1.13 -0.03,-0.08 -0.06,-0.16 -0.1,-0.24l-0.26 -0.42c-0.48,-0.67 -1.23,-1.03 -2.1,-1.03 -0.36,0 -0.58,-0.06 -0.58,0.18 0,0.19 0.36,0.11 0.5,0.13 0.58,0.06 0.91,0.04 1.47,0.43 0.39,0.27 0.64,0.68 0.81,1.12 0.03,0.1 0.13,0.37 0.13,0.5 -0.21,-0.06 -0.62,-0.78 -2.77,-0.78l-2.97 0c-0.34,0 -0.26,0.2 -0.26,0.72 0,0.33 0,0.66 0,0.99l-1.87 -1.46c-0.07,-0.05 -0.12,-0.09 -0.19,-0.15l-0.93 -0.74 2.81 -2.11c0.05,-0.05 0.14,-0.12 0.2,-0.14l0 1.32c0,0.15 0.01,0.29 0.16,0.29l2.53 0c0.15,0 0.18,-0.3 -0.04,-0.3l-2.33 0 0 -1.63c0,-0.08 -0.05,-0.15 -0.13,-0.16l-0.04 0c-0.04,0 -0.07,0.02 -0.12,0.05 -0.04,0.04 -0.07,0.06 -0.11,0.09 -0.08,0.06 -0.15,0.11 -0.23,0.17 -0.16,0.12 -0.3,0.22 -0.45,0.34l-2.49 1.87c-0.06,0.04 -0.18,0.11 -0.18,0.21z"/>
   <path class="fil0" d="M6.44 4.83l0 1.69 -2.37 0c-0.19,0 -0.29,0.32 0.08,0.32l2.39 0c0.29,0 0.22,-0.28 0.22,-0.74 0,-0.32 0,-0.65 0,-0.98l0.93 0.73c0.07,0.05 0.12,0.09 0.19,0.15l1.68 1.32c0.06,0.05 0.16,0.12 0.19,0.16 -0.04,0.05 -0.29,0.23 -0.37,0.29l-2.44 1.82c-0.05,0.04 -0.14,0.12 -0.2,0.14 0,-0.4 0,-0.8 0,-1.2 0,-0.5 0.03,-0.41 -0.8,-0.41 -0.8,0 -1.61,0 -2.41,0 -0.92,0 -1.38,-0.1 -1.92,-0.5 -0.22,-0.17 -0.39,-0.41 -0.54,-0.66 -0.09,-0.15 -0.31,-0.68 -0.31,-0.9 0.18,0.1 0.4,0.33 0.9,0.51 0.36,0.13 0.79,0.24 1.17,0.25 0.15,0 0.33,-0.02 0.47,0.01 0.41,0.05 0.37,-0.28 0.17,-0.31 -0.07,-0.01 -0.54,0 -0.77,-0.02 -0.74,-0.08 -1.34,-0.33 -1.87,-0.79 -0.06,-0.06 -0.21,-0.27 -0.27,-0.27 -0.11,0 -0.18,0.06 -0.18,0.16 0,0.43 0.18,1.02 0.35,1.37 0.04,0.08 0.08,0.13 0.12,0.22 0.2,0.38 0.68,0.81 1.08,0.99 0.31,0.13 0.72,0.23 1.16,0.23l3.33 0 0 1.64c0,0.08 0.05,0.15 0.13,0.16l0.04 0c0.03,-0.01 0.07,-0.02 0.12,-0.05l3.05 -2.3c0.45,-0.33 0.54,-0.34 0.23,-0.6l-2.68 -2.1c-0.11,-0.09 -0.59,-0.51 -0.71,-0.51 -0.1,0 -0.16,0.08 -0.16,0.18z"/>
  </g>
 </g>
</svg>
