<?xml version="1.0" encoding="UTF-8"?>
<!DOCTYPE svg PUBLIC "-//W3C//DTD SVG 1.1//EN" "http://www.w3.org/Graphics/SVG/1.1/DTD/svg11.dtd">
<!-- Creator: CorelDRAW -->
<svg xmlns="http://www.w3.org/2000/svg" xml:space="preserve" width="120px" height="120px" version="1.1" style="shape-rendering:geometricPrecision; text-rendering:geometricPrecision; image-rendering:optimizeQuality; fill-rule:evenodd; clip-rule:evenodd"
viewBox="0 0 14.99 14.99"
 xmlns:xlink="http://www.w3.org/1999/xlink"
 xmlns:xodm="http://www.corel.com/coreldraw/odm/2003">
 <defs>
  <style type="text/css">
   <![CDATA[
    .fil0 {fill:#63C0CD}
   ]]>
  </style>
 </defs>
 <g id="Camada_x0020_1">
  <metadata id="CorelCorpID_0Corel-Layer"/>
  <g id="_2411602182816">
   <path class="fil0" d="M6.26 6.79l0 -3.42 7.94 0 0 3.48c0,0.19 -0.21,0.32 -0.41,0.32l-7.12 0c-0.24,0 -0.41,-0.13 -0.41,-0.38zm0 -4.65c0,-0.17 0.15,-0.33 0.33,-0.33l7.28 0c0.43,0 0.33,0.59 0.33,1.03l-7.94 0 0 -0.7zm-0.52 -0.06l0 4.77c0,0.49 0.44,0.85 0.93,0.85l7.12 0c0.67,0 0.96,-0.49 0.96,-1.11l0 -4.25c0,-0.7 -0.38,-1.08 -1.08,-1.08l-6.88 0c-0.3,0 -0.56,0.07 -0.72,0.21 -0.15,0.13 -0.33,0.35 -0.33,0.61z"/>
   <path class="fil0" d="M10.92 8.37l0 4.22 -4.77 0c-0.32,0 -0.35,0.52 0.08,0.52l4.69 0 0 0.94c0,0.22 -0.15,0.41 -0.35,0.41l-6.56 0c-0.44,0 -0.3,-0.5 -0.61,-0.5 -0.07,0 -0.16,0.04 -0.2,0.07 -0.31,0.27 0.24,0.96 0.72,0.96l6.7 0c0.39,0 0.82,-0.42 0.82,-0.91l0 -5.68c0,-0.34 -0.52,-0.36 -0.52,-0.03z"/>
   <path class="fil0" d="M3.45 13c-0.69,0 -1.22,-0.22 -1.63,-0.63 -0.98,-0.98 -0.84,-2.59 0.28,-3.37 0.11,-0.08 0.2,-0.13 0.33,-0.19 1.69,-0.84 3.8,0.88 2.93,2.91 -0.08,0.19 -0.18,0.33 -0.3,0.48 -0.05,0.05 -0.07,0.09 -0.12,0.14 -0.07,0.08 -0.2,0.19 -0.29,0.25 -0.11,0.07 -0.19,0.12 -0.33,0.19 -0.22,0.11 -0.55,0.22 -0.87,0.22zm-2.81 -2.38c0,0.92 0.17,1.47 0.82,2.12 1.28,1.29 3.48,0.98 4.36,-0.77 0.58,-1.14 0.22,-2.56 -0.86,-3.38 -1.04,-0.78 -2.57,-0.67 -3.5,0.27 -0.46,0.46 -0.82,1.08 -0.82,1.76z"/>
   <path class="fil0" d="M3.1 0.82l0 6.23c0,0.15 0.12,0.27 0.27,0.27 0.31,0 0.26,-0.34 0.26,-0.65l0 -5.59c0,-0.24 0.01,-0.55 0.38,-0.55l6.56 0c0.3,0 0.22,0.29 0.52,0.29 0.2,0 0.38,-0.25 0.13,-0.51 -0.14,-0.14 -0.33,-0.31 -0.6,-0.31l-6.67 0c-0.14,0 -0.23,0.03 -0.33,0.08 -0.08,0.03 -0.19,0.11 -0.25,0.16 -0.11,0.11 -0.27,0.37 -0.27,0.58z"/>
   <path class="fil0" d="M3.13 9.45c-0.33,0.08 -0.61,0.42 -0.61,0.71 0,0.87 1.14,0.75 1.14,1.23 0,0.17 -0.18,0.29 -0.35,0.29 -0.3,0 -0.48,-0.13 -0.68,-0.24 -0.1,0.47 -0.41,0.53 0.47,0.74l0 0.41 0.5 0c0,-0.58 -0.03,-0.41 0.2,-0.53 0.54,-0.29 0.63,-1.03 0.01,-1.41 -0.34,-0.21 -0.71,-0.21 -0.71,-0.55 0,-0.17 0.26,-0.2 0.41,-0.18 0.3,0.03 0.32,0.13 0.5,0.15 0.04,-0.17 0.13,-0.32 0.15,-0.47 -0.09,-0.02 -0.28,-0.15 -0.53,-0.18 0,-0.47 0.1,-0.41 -0.5,-0.41l0 0.44z"/>
   <path class="fil0" d="M9.63 5.94c0,0.23 0.18,0.29 0.41,0.29l2.9 0c0.47,0 0.47,-0.55 0,-0.55l-2.96 0c-0.18,0 -0.35,0.09 -0.35,0.26z"/>
   <path class="fil0" d="M9.63 4.54c0,0.12 0.1,0.26 0.2,0.26l3.22 0c0.32,0 0.35,-0.53 -0.08,-0.53l-3.05 0c-0.15,0 -0.29,0.11 -0.29,0.27z"/>
   <path class="fil0" d="M6.76 13.79c0,0.34 0.44,0.26 0.76,0.26 0.34,0 0.35,-0.53 -0.03,-0.53 -0.31,0 -0.73,-0.06 -0.73,0.27z"/>
   <path class="fil0" d="M0 3.31c0,0.35 0.34,0.29 0.59,0.29 0.45,0 0.38,-0.53 0.05,-0.53 -0.31,0 -0.64,-0.06 -0.64,0.24z"/>
   <path class="fil0" d="M1.02 2.28c0,0.29 -0.07,0.68 0.27,0.68 0.31,0 0.26,-0.37 0.26,-0.59 0,-0.44 -0.53,-0.4 -0.53,-0.09z"/>
   <path class="fil0" d="M1.02 3.95c0,0.19 -0.06,0.67 0.24,0.67 0.35,0 0.29,-0.39 0.29,-0.64 0,-0.34 -0.53,-0.36 -0.53,-0.03z"/>
   <path class="fil0" d="M14.08 12.47c0,0.34 0.35,0.29 0.58,0.29 0.2,0 0.3,-0.11 0.33,-0.23l0 -0.09c-0.02,-0.11 -0.11,-0.21 -0.24,-0.21 -0.19,0 -0.67,-0.08 -0.67,0.24z"/>
   <path class="fil0" d="M13.43 13.14c0,0.19 -0.03,0.43 0.07,0.55 0.17,0.19 0.46,0.06 0.46,-0.17l0 -0.41c0,-0.34 -0.53,-0.31 -0.53,0.03z"/>
   <path class="fil0" d="M13.43 11.47c0,0.21 -0.05,0.65 0.27,0.65 0.33,0 0.26,-0.4 0.26,-0.68 0,-0.33 -0.53,-0.31 -0.53,0.03z"/>
   <path class="fil0" d="M1.67 3.31c0,0.35 0.3,0.29 0.61,0.29 0.37,0 0.39,-0.53 0.03,-0.53 -0.31,0 -0.64,-0.06 -0.64,0.24z"/>
   <path class="fil0" d="M12.41 12.47c0,0.44 0.91,0.34 0.91,0.09 0,-0.4 -0.17,-0.33 -0.71,-0.33 -0.08,0 -0.2,0.15 -0.2,0.24z"/>
  </g>
 </g>
</svg>
