<?xml version="1.0" encoding="UTF-8"?>
<!DOCTYPE svg PUBLIC "-//W3C//DTD SVG 1.1//EN" "http://www.w3.org/Graphics/SVG/1.1/DTD/svg11.dtd">
<!-- Creator: CorelDRAW -->
<svg xmlns="http://www.w3.org/2000/svg" xml:space="preserve" width="120px" height="90px" version="1.1" style="shape-rendering:geometricPrecision; text-rendering:geometricPrecision; image-rendering:optimizeQuality; fill-rule:evenodd; clip-rule:evenodd"
viewBox="0 0 7.24 5.43"
 xmlns:xlink="http://www.w3.org/1999/xlink"
 xmlns:xodm="http://www.corel.com/coreldraw/odm/2003">
 <defs>
  <style type="text/css">
   <![CDATA[
    .fil0 {fill:#63C0CD}
   ]]>
  </style>
 </defs>
 <g id="Camada_x0020_1">
  <metadata id="CorelCorpID_0Corel-Layer"/>
  <g id="_2376978283984">
   <path class="fil0" d="M0.26 0.68c0,-0.25 0.17,-0.42 0.42,-0.42l4.85 0c0.34,0 0.42,0.24 0.42,0.52l-5.69 0 0 -0.1zm-0.26 -0.08l0 2.94c0,0.3 0.3,0.6 0.6,0.6l3.44 0c0.09,0 0.14,-0.18 0.04,-0.24 -0.06,-0.05 -0.85,-0.02 -0.95,-0.02l-2.19 0c-0.26,0 -0.68,0.03 -0.68,-0.42l0 -1.39 4.55 0c0.13,0 0.13,-0.26 0,-0.26l-4.55 0 0 -0.78 5.69 0c0,0.42 -0.06,0.52 0.16,0.52 0.04,0 0.09,-0.06 0.09,-0.1l0 -0.85c0,-0.3 -0.3,-0.6 -0.59,-0.6l-5.01 0c-0.3,0 -0.6,0.3 -0.6,0.6z"/>
   <path class="fil0" d="M4.65 5.02l0 -1.24c0,-0.25 0.17,-0.42 0.42,-0.42l1.49 0c0.25,0 0.42,0.17 0.42,0.42l0 1.24c0,0.08 -0.07,0.15 -0.15,0.15l-2.03 0c-0.08,0 -0.15,-0.07 -0.15,-0.15zm0.65 -2.37c0,-0.25 0.1,-0.43 0.29,-0.53 0.13,-0.06 0.32,-0.06 0.45,0 0.06,0.03 0.1,0.07 0.15,0.12 0.19,0.2 0.14,0.53 0.14,0.86l-1.03 0 0 -0.45zm-0.26 -0.13l0 0.58c-0.37,0 -0.65,0.3 -0.65,0.6l0 1.37c0,0.18 0.18,0.36 0.36,0.36l2.13 0c0.18,0 0.36,-0.18 0.36,-0.36l0 -1.37c0,-0.3 -0.28,-0.6 -0.65,-0.6 0,-0.3 0.04,-0.63 -0.07,-0.86 -0.08,-0.16 -0.2,-0.28 -0.36,-0.36 -0.53,-0.26 -1.12,0.17 -1.12,0.64z"/>
   <path class="fil0" d="M0.52 4.52c0,0.08 0.05,0.13 0.13,0.13l2.84 0c0.17,0 0.17,-0.26 0,-0.26l-2.84 0c-0.08,0 -0.13,0.06 -0.13,0.13z"/>
   <path class="fil0" d="M5.56 4.01c0,0.08 0.05,0.12 0.13,0.13 0,0.26 -0.05,0.51 0.13,0.51 0.11,0 0.13,-0.07 0.13,-0.19 -0.01,-0.11 0,-0.22 0,-0.32 0.18,-0.02 0.16,-0.26 0,-0.26 -0.2,0 -0.39,-0.04 -0.39,0.13z"/>
   <path class="fil0" d="M0 4.52c0,0.18 0.26,0.18 0.26,0 0,-0.17 -0.26,-0.17 -0.26,0z"/>
   <path class="fil0" d="M3.88 4.52c0,0.18 0.26,0.18 0.26,0 0,-0.17 -0.26,-0.17 -0.26,0z"/>
  </g>
 </g>
</svg>
