<svg width="324" height="362" viewBox="0 0 324 362" fill="none" xmlns="http://www.w3.org/2000/svg">
<path d="M300.876 67.7888C301.917 67.7888 302.758 66.8981 302.758 65.8174C302.758 64.7266 301.917 63.8359 300.876 63.8359C299.846 63.8359 298.995 64.7266 298.995 65.8174C298.995 66.8981 299.846 67.7888 300.876 67.7888ZM300.876 64.3763C301.637 64.3763 302.247 65.0168 302.247 65.8174C302.247 66.6079 301.637 67.2584 300.876 67.2584C300.126 67.2584 299.505 66.6079 299.505 65.8174C299.505 65.0168 300.126 64.3763 300.876 64.3763Z" fill="#D3D5DB"/>
<path d="M198.533 237.381C199.574 237.381 200.414 236.5 200.414 235.409C200.414 234.319 199.574 233.438 198.533 233.438C197.502 233.438 196.651 234.319 196.651 235.409C196.651 236.5 197.502 237.381 198.533 237.381ZM198.533 233.968C199.293 233.968 199.904 234.609 199.904 235.409C199.904 236.2 199.293 236.85 198.533 236.85C197.772 236.85 197.162 236.2 197.162 235.409C197.162 234.609 197.772 233.968 198.533 233.968Z" fill="#23E1F1" stroke="#01818A" stroke-width="0.480345" stroke-miterlimit="10"/>
<path d="M259.987 342.937C261.018 342.937 261.858 342.046 261.858 340.955C261.858 339.865 261.018 338.984 259.987 338.984C258.946 338.984 258.106 339.865 258.106 340.955C258.106 342.046 258.946 342.937 259.987 342.937ZM259.987 339.514C260.738 339.514 261.358 340.165 261.358 340.955C261.358 341.756 260.738 342.396 259.987 342.396C259.226 342.396 258.616 341.756 258.616 340.955C258.616 340.165 259.226 339.514 259.987 339.514Z" fill="#D3D5DB"/>
<path d="M202.696 33.0839C203.727 33.0839 204.567 32.2033 204.567 31.1125C204.567 30.0217 203.727 29.1411 202.696 29.1411C201.655 29.1411 200.814 30.0217 200.814 31.1125C200.814 32.2033 201.655 33.0839 202.696 33.0839ZM202.696 29.6715C203.446 29.6715 204.067 30.312 204.067 31.1125C204.067 31.9031 203.446 32.5536 202.696 32.5536C201.935 32.5536 201.325 31.9031 201.325 31.1125C201.325 30.312 201.935 29.6715 202.696 29.6715Z" fill="#D3D5DB"/>
<path d="M292.751 112.831L323.152 97.3502C309.743 71.0212 289.849 48.1048 265.611 31.0825L246.007 59.0026C265.691 72.8325 281.863 91.4459 292.751 112.831Z" fill="#23E1F1"/>
<path d="M216.556 353.144C243.305 344.538 268.083 329.507 288.207 309.683L264.26 285.385C247.918 301.487 227.814 313.686 206.108 320.671L216.556 353.144Z" fill="#23E1F1"/>
<path d="M161.006 361.82V327.706C142.633 327.706 124.73 324.363 107.777 317.789L95.4286 349.591C116.334 357.707 138.399 361.82 161.006 361.82Z" fill="#23E1F1"/>
<path d="M111.2 41.6701C115.873 40.0389 120.687 38.6179 125.49 37.4671L117.575 4.2832C111.63 5.70423 105.696 7.45548 99.9219 9.46693L111.2 41.6701Z" fill="#23E1F1"/>
<path d="M195.821 37.597L203.867 4.4432C194.94 2.28164 185.774 0.780561 176.597 0L173.695 33.9945C181.14 34.6249 188.586 35.8358 195.821 37.597Z" fill="#23E1F1"/>
<path d="M218.507 65.4673C228.434 70.1306 237.751 76.0949 246.197 83.17L245.146 84.4209C236.81 77.4359 227.614 71.5617 217.807 66.9484L218.507 65.4673Z" fill="#23E1F1"/>
<path d="M251.201 89.8544L252.331 88.6636C260.297 96.269 267.242 104.875 272.986 114.232L271.585 115.093C265.921 105.846 259.056 97.3598 251.201 89.8544Z" fill="#23E1F1"/>
<path d="M210.932 62.2145L210.331 63.7356C200.244 59.7828 189.656 57.1509 178.849 55.93L179.039 54.2988C189.977 55.5397 200.714 58.2016 210.932 62.2145Z" fill="#23E1F1"/>
<path d="M170.743 55.2698C168.691 55.1697 166.6 55.1197 164.538 55.1197V53.4785C166.63 53.4785 168.741 53.5286 170.823 53.6286L170.743 55.2698Z" fill="#23E1F1" stroke="#23E1F1" stroke-width="0.480345" stroke-miterlimit="10"/>
<path d="M86.7624 261.458L86.192 262.049C75.3442 251.621 66.8281 239.362 60.8538 225.622C54.6694 211.392 51.5371 196.251 51.5371 180.61C51.5371 162.327 56.0003 144.164 64.4564 128.092L65.1769 128.473C56.7909 144.424 52.3477 162.457 52.3477 180.61C52.3477 196.141 55.4699 211.172 61.6044 225.292C67.5286 238.932 75.9947 251.101 86.7624 261.458Z" fill="#036A75"/>
<path d="M164.538 67.6084V68.429C135.698 68.429 108.308 79.3468 87.3829 99.1711C87.3028 99.2412 87.2128 99.2812 87.1027 99.2812C87.0026 99.2812 86.8925 99.2411 86.8125 99.1611L86.7725 99.1211L87.0727 98.8309L86.8225 98.5707C107.898 78.6063 135.487 67.6084 164.538 67.6084Z" fill="#9ADBE3"/>
<path d="M83.2298 71.0211C65.387 82.6494 50.4963 98.6409 40.1889 117.254C29.5412 136.458 23.9172 158.284 23.9172 180.38H21.6255C21.6255 227.023 44.9123 270.224 83.9203 295.923C84.0804 296.033 84.1505 296.233 84.0804 296.413C84.0204 296.573 83.8603 296.673 83.7002 296.673H83.6301L83.2899 296.623L83.3099 296.503C44.1717 270.635 20.8149 227.233 20.8149 180.38H20.925C20.925 157.773 26.6692 135.447 37.557 115.793C48.1046 96.7596 63.3355 80.4078 81.5887 68.5093L83.2298 71.0211Z" fill="#184D67"/>
<path d="M262.619 247.828C262.869 247.468 263.129 247.108 263.379 246.748L271.665 252.512C271.395 252.902 271.125 253.292 270.845 253.673L262.619 247.828Z" fill="#23E1F1"/>
<path d="M217.146 286.356C217.537 286.166 217.927 285.966 218.317 285.775L222.83 294.802C222.41 295.022 221.99 295.222 221.559 295.432L217.146 286.356Z" fill="#23E1F1"/>
<path d="M265.991 242.825C266.221 242.464 266.462 242.084 266.692 241.714L275.258 247.058C275.008 247.458 274.758 247.858 274.497 248.259L265.991 242.825Z" fill="#23E1F1"/>
<path d="M251.081 261.718C251.381 261.398 251.681 261.088 251.981 260.768L259.317 267.703C258.996 268.053 258.666 268.393 258.336 268.733L251.081 261.718Z" fill="#23E1F1"/>
<path d="M242.284 269.944C242.625 269.664 242.955 269.384 243.285 269.094L249.89 276.729C249.54 277.039 249.179 277.35 248.819 277.65L242.284 269.944Z" fill="#23E1F1"/>
<path d="M232.727 277.27C233.088 277.019 233.448 276.769 233.798 276.519L239.622 284.765C239.232 285.045 238.842 285.315 238.452 285.586L232.727 277.27Z" fill="#23E1F1"/>
<path d="M227.684 280.552C228.054 280.322 228.424 280.091 228.795 279.861L234.189 288.397C233.798 288.648 233.388 288.898 232.988 289.148L227.684 280.552Z" fill="#23E1F1"/>
<path d="M246.787 265.941C247.098 265.641 247.418 265.341 247.738 265.041L254.723 272.336C254.373 272.666 254.033 272.986 253.692 273.306L246.787 265.941Z" fill="#23E1F1"/>
<path d="M259.006 252.642C259.277 252.301 259.547 251.961 259.817 251.611L267.803 257.785C267.512 258.156 267.222 258.526 266.932 258.906L259.006 252.642Z" fill="#23E1F1"/>
<path d="M255.154 257.275C255.444 256.945 255.724 256.614 256.014 256.284L263.69 262.849C263.379 263.209 263.069 263.569 262.759 263.93L255.154 257.275Z" fill="#23E1F1"/>
<path d="M237.601 273.727C237.941 273.457 238.291 273.196 238.632 272.926L244.856 280.882C244.486 281.172 244.106 281.462 243.735 281.743L237.601 273.727Z" fill="#23E1F1"/>
<path d="M222.49 283.584C222.87 283.374 223.251 283.164 223.631 282.954L228.594 291.74C228.184 291.98 227.774 292.21 227.353 292.43L222.49 283.584Z" fill="#23E1F1"/>
<path d="M164.839 308.492L164.819 298.395C165.259 298.395 165.699 298.395 166.13 298.385L166.25 308.482C165.779 308.492 165.309 308.492 164.839 308.492Z" fill="#23E1F1"/>
<path d="M140.261 306.21C139.801 306.12 139.33 306.03 138.87 305.94L140.861 296.043C141.292 296.123 141.712 296.213 142.152 296.293L140.261 306.21Z" fill="#23E1F1"/>
<path d="M159.725 308.402C159.255 308.382 158.784 308.362 158.314 308.342L158.794 298.254C159.235 298.274 159.675 298.294 160.105 298.314L159.725 308.402Z" fill="#23E1F1"/>
<path d="M133.866 304.829C133.406 304.719 132.946 304.609 132.485 304.489L134.977 294.702C135.397 294.812 135.818 294.912 136.248 295.022L133.866 304.829Z" fill="#23E1F1"/>
<path d="M146.716 307.271C146.255 307.201 145.785 307.131 145.315 307.071L146.796 297.074C147.226 297.144 147.666 297.204 148.097 297.264L146.716 307.271Z" fill="#23E1F1"/>
<path d="M115.233 298.785C114.793 298.605 114.352 298.425 113.912 298.245L117.855 288.938C118.255 289.108 118.655 289.278 119.066 289.448L115.233 298.785Z" fill="#23E1F1"/>
<path d="M121.337 301.117C120.897 300.956 120.447 300.796 119.996 300.636L123.459 291.149C123.869 291.3 124.279 291.45 124.7 291.59L121.337 301.117Z" fill="#23E1F1"/>
<path d="M130.434 293.451L127.552 303.138C127.101 302.998 126.651 302.858 126.201 302.718L129.173 293.071C129.593 293.201 130.004 293.331 130.434 293.451Z" fill="#23E1F1"/>
<path d="M197.132 304.409L194.62 294.632C195.04 294.522 195.461 294.412 195.881 294.302L198.493 304.049C198.042 304.169 197.582 304.289 197.132 304.409Z" fill="#23E1F1"/>
<path d="M203.396 302.638L200.394 292.991C200.814 292.861 201.225 292.731 201.635 292.601L204.747 302.207C204.297 302.348 203.847 302.498 203.396 302.638Z" fill="#23E1F1"/>
<path d="M277.88 242.675L269.104 237.671C269.324 237.291 269.534 236.911 269.754 236.53L278.58 241.434C278.35 241.844 278.11 242.254 277.88 242.675Z" fill="#23E1F1"/>
<path d="M209.571 300.536L206.088 291.059C206.499 290.909 206.899 290.759 207.309 290.599L210.892 300.046C210.451 300.216 210.011 300.376 209.571 300.536Z" fill="#23E1F1"/>
<path d="M215.625 298.134L211.672 288.848C212.073 288.677 212.473 288.507 212.873 288.327L216.926 297.574C216.496 297.764 216.065 297.954 215.625 298.134Z" fill="#23E1F1"/>
<path d="M177.868 307.831L176.857 297.784C177.287 297.744 177.728 297.694 178.158 297.644L179.279 307.681C178.809 307.731 178.338 307.781 177.868 307.831Z" fill="#23E1F1"/>
<path d="M190.777 305.87L188.756 295.973C189.186 295.893 189.616 295.803 190.037 295.713L192.158 305.58C191.698 305.68 191.238 305.78 190.777 305.87Z" fill="#23E1F1"/>
<path d="M171.353 308.322L170.843 298.235C171.283 298.215 171.724 298.195 172.154 298.165L172.774 308.242C172.304 308.272 171.834 308.302 171.353 308.322Z" fill="#23E1F1"/>
<path d="M184.343 307.011L182.832 297.033C183.262 296.963 183.692 296.893 184.122 296.823L185.744 306.79C185.283 306.87 184.813 306.941 184.343 307.011Z" fill="#23E1F1"/>
<path d="M153.22 308.002C152.74 307.962 152.27 307.912 151.799 307.862L152.79 297.814C153.22 297.854 153.661 297.905 154.091 297.935L153.22 308.002Z" fill="#23E1F1"/>
<path d="M102.153 292.55L107.007 283.694C107.387 283.904 107.777 284.114 108.158 284.314L103.404 293.221C102.984 293.001 102.574 292.77 102.153 292.55Z" fill="#23E1F1"/>
<path d="M71.1111 268.883L78.3663 261.858C78.6665 262.169 78.9767 262.479 79.277 262.789L72.1018 269.894C71.7716 269.554 71.4413 269.224 71.1111 268.883Z" fill="#23E1F1"/>
<path d="M96.5094 289.268L101.803 280.662C102.173 280.892 102.544 281.122 102.914 281.343L97.7203 290.009C97.31 289.759 96.9097 289.518 96.5094 289.268Z" fill="#23E1F1"/>
<path d="M66.688 264.08L74.2734 257.425C74.5637 257.756 74.8539 258.076 75.1441 258.406L67.6287 265.141C67.3084 264.791 66.9982 264.44 66.688 264.08Z" fill="#23E1F1"/>
<path d="M107.968 295.543L112.361 286.456C112.751 286.646 113.151 286.836 113.542 287.016L109.249 296.153C108.818 295.953 108.398 295.753 107.968 295.543Z" fill="#23E1F1"/>
<path d="M80.6479 277.79L87.1626 270.074C87.5029 270.354 87.8331 270.635 88.1734 270.915L81.7387 278.7C81.3785 278.4 81.0082 278.09 80.6479 277.79Z" fill="#23E1F1"/>
<path d="M91.0355 285.705L96.7496 277.379C97.1099 277.63 97.4702 277.87 97.8304 278.12L92.2064 286.506C91.8161 286.236 91.4258 285.976 91.0355 285.705Z" fill="#23E1F1"/>
<path d="M83.6202 266.962L76.8153 274.417C76.455 274.097 76.1148 273.777 75.7745 273.457L82.6595 266.071C82.9797 266.372 83.2999 266.672 83.6202 266.962Z" fill="#23E1F1"/>
<path d="M85.7417 281.873L91.8661 273.847C92.2164 274.117 92.5666 274.378 92.9068 274.638L86.8725 282.734C86.4922 282.453 86.122 282.163 85.7417 281.873Z" fill="#23E1F1"/>
<path d="M100.252 257.045C109.069 264.47 118.976 270.254 129.723 274.247C140.841 278.39 152.56 280.482 164.538 280.482V282.123C152.36 282.123 140.461 279.991 129.163 275.788C118.235 271.725 108.148 265.841 99.1914 258.306L100.252 257.045Z" fill="#23E1F1"/>
<path d="M132.846 88.4734L130.714 82.2789C131.154 82.1188 131.605 81.9687 132.055 81.8286L134.096 88.0531C133.676 88.1832 133.266 88.3233 132.846 88.4734Z" fill="#036A75"/>
<path d="M138.65 86.6724L136.908 80.3578C137.359 80.2377 137.819 80.1176 138.269 79.9976L139.931 86.3321C139.5 86.4422 139.07 86.5623 138.65 86.6724Z" fill="#036A75"/>
<path d="M111.09 99.1515L107.497 93.6775C107.888 93.4274 108.278 93.1672 108.678 92.917L112.201 98.441C111.83 98.6711 111.46 98.9113 111.09 99.1515Z" fill="#036A75"/>
<path d="M116.274 95.9791L113.021 90.295C113.432 90.0548 113.842 89.8247 114.252 89.6045L117.424 95.3286C117.034 95.5388 116.654 95.7589 116.274 95.9791Z" fill="#036A75"/>
<path d="M127.171 90.6253L124.65 84.5709C125.09 84.3908 125.52 84.2207 125.961 84.0405L128.382 90.1249C127.982 90.285 127.572 90.4551 127.171 90.6253Z" fill="#036A75"/>
<path d="M121.637 93.127L118.745 87.2528C119.166 87.0426 119.586 86.8425 120.016 86.6323L122.828 92.5566C122.428 92.7467 122.028 92.9369 121.637 93.127Z" fill="#036A75"/>
<path d="M97.1299 101.453C97.4901 101.153 97.8504 100.852 98.2107 100.552L102.394 105.586C102.053 105.876 101.713 106.156 101.383 106.436L97.1299 101.453Z" fill="#036A75"/>
<path d="M92.3364 105.806C92.6767 105.486 93.0069 105.156 93.3572 104.835L97.8404 109.609C97.5202 109.909 97.1999 110.219 96.8897 110.52L92.3364 105.806Z" fill="#036A75"/>
<path d="M144.544 85.2515L143.213 78.8368C143.673 78.7468 144.144 78.6467 144.604 78.5566L145.855 84.9913C145.415 85.0713 144.984 85.1614 144.544 85.2515Z" fill="#036A75"/>
<path d="M107.187 101.863C106.827 102.123 106.477 102.384 106.126 102.644L102.193 97.4099C102.574 97.1297 102.954 96.8495 103.324 96.5693L107.187 101.863Z" fill="#036A75"/>
<path d="M205.988 92.4364C192.979 86.302 179.029 83.1997 164.538 83.1997C159.975 83.1997 155.392 83.52 150.909 84.1404L149.998 77.6557C154.791 76.9853 159.675 76.645 164.538 76.645C180 76.645 194.89 79.9674 208.78 86.5121L205.988 92.4364Z" fill="#036A75"/>
<path d="M98.3608 246.788C80.678 229.115 70.941 205.608 70.941 180.61C70.941 151.99 83.7903 125.32 106.176 107.438L106.867 108.298C84.731 125.971 72.0318 152.33 72.0318 180.61C72.0318 205.318 81.6587 228.545 99.1313 246.017C116.594 263.49 139.821 273.117 164.538 273.117C192.759 273.117 219.078 260.468 236.75 238.422L237.601 239.102C219.718 261.408 193.089 274.207 164.538 274.207C139.54 274.207 116.033 264.47 98.3608 246.788Z" fill="#184D67"/>
<path d="M285.785 100.302L299.315 91.5657C277.86 58.3518 245.206 34.1144 207.369 23.3066L202.946 38.7978C237.03 48.5348 266.452 70.3805 285.785 100.302Z" fill="#036A75"/>
<path d="M300.806 265.481C304.249 259.947 307.381 254.153 310.133 248.259L295.523 241.464C293.061 246.768 290.229 251.991 287.136 256.975L300.806 265.481Z" fill="#036A75" stroke="#036A75" stroke-width="0.480345" stroke-miterlimit="10"/>
<path d="M265.941 305.289C272.756 299.685 279.151 293.481 284.965 286.846L272.846 276.229C267.612 282.213 261.838 287.807 255.704 292.86L265.941 305.289Z" fill="#036A75"/>
<path d="M85.5315 322.922L93.177 308.752C79.8775 301.577 67.7888 292.411 57.2512 281.513L45.6729 292.701C57.3613 304.799 70.7709 314.967 85.5315 322.922Z" fill="#036A75"/>
<path d="M4.12297 216.246L19.8143 212.643C17.3525 201.905 16.1016 190.827 16.1016 179.699C16.1016 154.571 22.5762 129.783 34.805 108.018L20.7649 100.122C7.17516 124.289 0 151.809 0 179.699C0 192.038 1.38099 204.327 4.12297 216.246Z" fill="#036A75"/>
<path d="M47.0939 89.5643C49.1554 86.9224 51.347 84.3206 53.5886 81.8288L41.6 71.061C39.1182 73.833 36.6964 76.7251 34.4048 79.6472L47.0939 89.5643Z" fill="#036A75"/>
<path d="M64.1161 71.2315C67.9088 67.789 71.9117 64.5166 76.0247 61.4945L66.4978 48.5151C61.9345 51.8575 57.4914 55.5002 53.2883 59.3129L64.1161 71.2315Z" fill="#036A75"/>
<path d="M98.8411 47.7542C102.494 45.9829 106.266 44.3517 110.049 42.8907L104.275 27.8599C100.062 29.471 95.879 31.2923 91.816 33.2537L98.8411 47.7542Z" fill="#036A75"/>
<path d="M128.172 37.2568C139.38 34.5548 150.979 33.1839 162.617 33.1839V17.0723C149.708 17.0723 136.848 18.5934 124.399 21.5955L128.172 37.2568Z" fill="#036A75"/>
<path d="M165.749 100.282C184.553 100.282 200.154 104.906 212.543 114.162C224.932 123.419 232.878 135.928 236.38 151.669H204.017C200.955 144.674 196.101 139.09 189.466 134.937C182.842 130.784 175.006 128.703 165.959 128.703C157.073 128.703 149.197 130.744 142.352 134.827C135.497 138.91 130.174 144.744 126.381 152.32C122.598 159.905 120.697 168.802 120.697 178.999C120.697 195.18 125.04 207.79 133.706 216.836C142.382 225.873 154.231 230.386 169.242 230.386C180.32 230.386 189.837 227.113 197.782 220.549C205.728 213.994 210.862 204.877 213.193 193.219H160.936V171.133H239.002V200.865C236.81 211.072 232.547 220.479 226.213 229.075C219.868 237.681 211.552 244.566 201.275 249.74C190.997 254.913 179.229 257.505 165.959 257.505C150.798 257.505 137.429 254.193 125.841 247.558C114.252 240.923 105.286 231.667 98.9412 219.788C92.5966 207.9 89.4243 194.31 89.4243 178.999C89.4243 163.698 92.5966 150.098 98.9412 138.22C105.286 126.341 114.212 117.044 125.73 110.339C137.249 103.635 150.588 100.282 165.749 100.282Z" fill="url(#paint0_linear_13_3)"/>
<defs>
<linearGradient id="paint0_linear_13_3" x1="193.449" y1="106.487" x2="134.977" y2="251.301" gradientUnits="userSpaceOnUse">
<stop stop-color="#018790"/>
<stop offset="1" stop-color="#00E3F7"/>
</linearGradient>
</defs>
</svg>
